PathFileType	4	(X/Y/Z)	SUB01_off_static_1_1707858583308
DataRate	CameraRate	NumFrames	NumMarkers	Units	OrigDataRate	OrigDataStartFrame	OrigNumFrames
150.00	150.00	       4	71	mm  	150.00	57	       150
Frame#	Time	CLAV			STRN			C7			T10			RSHO			LSHO			RUPA			REL			REM			RFRA			RWL			RWM			LUPA			LEL			LEM			LFRA			LWL			LWM			R.ASIS			L.ASIS			R.PSIS			L.PSIS			R.GTR			R.Knee			R.HF			R.TT			R.Ankle			R.Heel			R.MT1			R.MT5			L.GTR			L.Knee			L.HF			L.TT			L.Ankle			L.Heel			L.MT1			L.MT5			R.Knee.Medial			R.Ankle.Medial			R.MT2			L.Knee.Medial			L.Ankle.Medial			L.MT2			V_Mid_ASIS			V_Mid_PSIS			V_Pelvis_Origin			V_R.Hip_JC			V_R.Knee_JC_Static			V_R.TT			V_R.Ankle_JC			V_L.Hip_JC			V_Mid_Hip			V_R.MT2			V_R.Knee.Medial			V_R.Ankle.Medial			V_R.TT			V_L.Knee_JC_Static			V_L.TT			V_L.Ankle_JC			V_L.MT2			V_L.Knee.Medial			V_L.Ankle.Medial			V_R.Knee_JC2			V_R.Knee2			V_R.Knee_JC_Dynamic			V_R.Ankle_JC_Dynamic			V_L.Knee_JC_Dynamic			V_L.Ankle_JC_Dynamic			V_R.TT2			V_L.TT2			
		X1	Y1	Z1	X2	Y2	Z2	X3	Y3	Z3	X4	Y4	Z4	X5	Y5	Z5	X6	Y6	Z6	X7	Y7	Z7	X8	Y8	Z8	X9	Y9	Z9	X10	Y10	Z10	X11	Y11	Z11	X12	Y12	Z12	X13	Y13	Z13	X14	Y14	Z14	X15	Y15	Z15	X16	Y16	Z16	X17	Y17	Z17	X18	Y18	Z18	X19	Y19	Z19	X20	Y20	Z20	X21	Y21	Z21	X22	Y22	Z22	X23	Y23	Z23	X24	Y24	Z24	X25	Y25	Z25	X26	Y26	Z26	X27	Y27	Z27	X28	Y28	Z28	X29	Y29	Z29	X30	Y30	Z30	X31	Y31	Z31	X32	Y32	Z32	X33	Y33	Z33	X34	Y34	Z34	X35	Y35	Z35	X36	Y36	Z36	X37	Y37	Z37	X38	Y38	Z38	X39	Y39	Z39	X40	Y40	Z40	X41	Y41	Z41	X42	Y42	Z42	X43	Y43	Z43	X44	Y44	Z44	X45	Y45	Z45	X46	Y46	Z46	X47	Y47	Z47	X48	Y48	Z48	X49	Y49	Z49	X50	Y50	Z50	X51	Y51	Z51	X52	Y52	Z52	X53	Y53	Z53	X54	Y54	Z54	X55	Y55	Z55	X56	Y56	Z56	X57	Y57	Z57	X58	Y58	Z58	X59	Y59	Z59	X60	Y60	Z60	X61	Y61	Z61	X62	Y62	Z62	X63	Y63	Z63	X64	Y64	Z64	X65	Y65	Z65	X66	Y66	Z66	X67	Y67	Z67	X68	Y68	Z68	X69	Y69	Z69	X70	Y70	Z70	X71	Y71	Z71	
57	0.373333	968.175049	1390.200317	588.040466	973.859436	1230.682373	581.425842	834.934753	1488.503174	587.909485	740.047791	1233.305664	565.118347	838.491638	1480.639648	732.814880	871.487915	1495.164307	443.419678	873.762085	1462.057373	912.007629	906.825928	1472.361084	1005.730957	935.303345	1372.142700	1016.441162	942.515686	1472.925171	1172.680054	1017.618591	1434.448364	1251.533691	953.112244	1464.785889	1271.472168	941.287537	1479.091431	276.539856	995.451416	1490.474487	167.467682	1007.237793	1388.462646	153.175415	1026.499268	1477.704712	23.447334	1125.754028	1433.566040	-42.957359	1061.659546	1461.353760	-70.375137	960.916992	943.198120	679.390869	959.531738	935.429626	471.535278	760.081604	1009.959717	604.867432	765.209778	1008.743591	525.937805	858.064636	883.113037	753.557556	862.094482	512.367310	730.664856	863.623474	441.043121	732.516968	906.477844	397.931946	681.547180	781.609802	93.225632	725.009460	724.833191	49.792717	681.577026	927.059937	43.078724	676.640869	888.885010	30.970778	761.608521	873.888855	882.688171	394.116882	868.925293	497.315613	433.992249	874.986084	438.867188	437.000153	916.786560	393.322662	483.974884	781.301758	76.725418	462.547852	733.328369	53.623013	512.974487	942.549683	40.129631	497.971069	889.551453	33.128201	422.917267	869.792603	501.865417	601.162781	807.934265	94.631653	640.747375	928.917053	38.829193	716.020386	889.709351	499.574402	563.780212	817.598755	80.116287	546.288269	932.459778	38.789494	459.092804	0.000000	0.000000	0.000000	0.000000	0.000000	0.000000	0.000000	0.000000	0.000000	0.000000	0.000000	0.000000	0.000000	0.000000	0.000000	0.000000	0.000000	0.000000	0.000000	0.000000	0.000000	0.000000	0.000000	0.000000	0.000000	0.000000	0.000000	0.000000	0.000000	0.000000	0.000000	0.000000	0.000000	0.000000	0.000000	0.000000	0.000000	0.000000	0.000000	0.000000	0.000000	0.000000	0.000000	0.000000	0.000000	0.000000	0.000000	0.000000	0.000000	0.000000	0.000000	0.000000	0.000000	0.000000	0.000000	0.000000	0.000000	0.000000	0.000000	0.000000	0.000000	0.000000	0.000000	0.000000	0.000000	0.000000	0.000000	0.000000	0.000000	0.000000	0.000000	0.000000	0.000000	0.000000	0.000000	0.000000	0.000000	0.000000	0.000000	0.000000	0.000000	
58	0.380000	968.213440	1390.205078	588.040894	973.902710	1230.688232	581.432556	834.981567	1488.508179	587.897278	740.078735	1233.311279	565.121948	838.508972	1480.651978	732.799744	871.514709	1495.168091	443.420593	873.791443	1462.087769	911.990784	906.854065	1472.401978	1005.715210	935.338379	1372.188477	1016.427490	942.572693	1472.974487	1172.657837	1017.677429	1434.518311	1251.495972	953.184143	1464.847656	1271.453003	941.313660	1479.103149	276.541595	995.482178	1490.486816	167.474060	1007.249451	1388.473999	153.159561	1026.571289	1477.737549	23.461239	1125.843628	1433.631958	-42.921917	1061.742676	1461.394775	-70.356743	960.941711	943.197815	679.394714	959.556946	935.431641	471.541473	760.168335	1009.968262	604.888306	765.180298	1008.773804	525.938965	858.082214	883.117126	753.569519	862.118774	512.367188	730.667603	863.641785	441.041412	732.521179	906.494263	397.930206	681.549805	781.612610	93.227821	725.009766	724.834717	49.795025	681.577332	927.060120	43.079136	676.639648	888.885376	30.971313	761.607788	873.912048	882.691956	394.125397	868.915283	497.320679	433.995239	874.975708	438.871368	437.001953	916.779724	393.326447	483.974182	781.299622	76.726685	462.547211	733.327393	53.624294	512.974182	942.548889	40.129936	497.968781	889.550354	33.128166	422.915588	869.814392	501.863708	601.164734	807.934509	94.634003	640.747559	928.917786	38.829159	716.019104	889.699158	499.580902	563.779724	817.599304	80.117928	546.287292	932.458984	38.789310	459.090393	0.000000	0.000000	0.000000	0.000000	0.000000	0.000000	0.000000	0.000000	0.000000	0.000000	0.000000	0.000000	0.000000	0.000000	0.000000	0.000000	0.000000	0.000000	0.000000	0.000000	0.000000	0.000000	0.000000	0.000000	0.000000	0.000000	0.000000	0.000000	0.000000	0.000000	0.000000	0.000000	0.000000	0.000000	0.000000	0.000000	0.000000	0.000000	0.000000	0.000000	0.000000	0.000000	0.000000	0.000000	0.000000	0.000000	0.000000	0.000000	0.000000	0.000000	0.000000	0.000000	0.000000	0.000000	0.000000	0.000000	0.000000	0.000000	0.000000	0.000000	0.000000	0.000000	0.000000	0.000000	0.000000	0.000000	0.000000	0.000000	0.000000	0.000000	0.000000	0.000000	0.000000	0.000000	0.000000	0.000000	0.000000	0.000000	0.000000	0.000000	0.000000	
59	0.386667	968.259216	1390.209473	588.042053	973.948730	1230.694580	581.438416	835.028625	1488.513428	587.885315	740.110718	1233.317261	565.126038	838.528076	1480.664185	732.784729	871.542542	1495.172852	443.423340	873.819702	1462.117065	911.975830	906.883240	1472.444702	1005.700806	935.383789	1372.238770	1016.412415	942.628845	1473.024658	1172.635498	1017.742249	1434.590942	1251.461548	953.256958	1464.911987	1271.432373	941.347290	1479.120117	276.548096	995.515991	1490.506714	167.481796	1007.273132	1388.493530	153.149094	1026.649902	1477.776489	23.477015	1125.939087	1433.707642	-42.883511	1061.832031	1461.443604	-70.335648	960.966064	943.196411	679.396545	959.579163	935.432800	471.546143	760.248474	1009.976990	604.909790	765.154419	1008.801208	525.942322	858.098755	883.121521	753.581238	862.144531	512.366577	730.669922	863.660706	441.039124	732.524780	906.510498	397.927948	681.551208	781.615417	93.229675	725.010132	724.836060	49.796860	681.578003	927.060364	43.079632	676.638428	888.885620	30.972010	761.607666	873.932068	882.694641	394.132782	868.908752	497.324402	433.997284	874.968201	438.874786	437.003235	916.775085	393.329285	483.972748	781.297791	76.728111	462.546600	733.326660	53.625793	512.974121	942.548035	40.130207	497.966431	889.549255	33.128265	422.914093	869.834961	501.861664	601.166260	807.934814	94.635918	640.747803	928.918518	38.829128	716.017517	889.691650	499.585571	563.779236	817.600342	80.119347	546.286438	932.458313	38.789211	459.088043	0.000000	0.000000	0.000000	0.000000	0.000000	0.000000	0.000000	0.000000	0.000000	0.000000	0.000000	0.000000	0.000000	0.000000	0.000000	0.000000	0.000000	0.000000	0.000000	0.000000	0.000000	0.000000	0.000000	0.000000	0.000000	0.000000	0.000000	0.000000	0.000000	0.000000	0.000000	0.000000	0.000000	0.000000	0.000000	0.000000	0.000000	0.000000	0.000000	0.000000	0.000000	0.000000	0.000000	0.000000	0.000000	0.000000	0.000000	0.000000	0.000000	0.000000	0.000000	0.000000	0.000000	0.000000	0.000000	0.000000	0.000000	0.000000	0.000000	0.000000	0.000000	0.000000	0.000000	0.000000	0.000000	0.000000	0.000000	0.000000	0.000000	0.000000	0.000000	0.000000	0.000000	0.000000	0.000000	0.000000	0.000000	0.000000	0.000000	0.000000	0.000000	
60	0.393333	968.311096	1390.213135	588.043762	973.996643	1230.701050	581.443359	835.074951	1488.518066	587.874268	740.143250	1233.323242	565.130920	838.549011	1480.676025	732.770325	871.570862	1495.178223	443.427795	873.847900	1462.144897	911.963074	906.915222	1472.487915	1005.687622	935.439758	1372.292480	1016.396912	942.684937	1473.074951	1172.613281	1017.813599	1434.665527	1251.431152	953.330688	1464.978516	1271.410522	941.387817	1479.141479	276.559479	995.553467	1490.533691	167.491364	1007.311646	1388.521118	153.146210	1026.734375	1477.820190	23.494864	1126.038696	1433.789917	-42.842888	1061.927002	1461.498779	-70.311424	960.989990	943.193848	679.396606	959.598389	935.432922	471.549469	760.319031	1009.985291	604.931030	765.135193	1008.824219	525.948181	858.114441	883.125977	753.592468	862.170898	512.365417	730.671631	863.679749	441.036255	732.527832	906.526184	397.925140	681.551331	781.618225	93.231026	725.010620	724.837158	49.798069	681.578918	927.060547	43.080193	676.637268	888.885620	30.972937	761.608215	873.948914	882.696045	394.138916	868.906433	497.326630	433.998444	874.964417	438.877197	437.004089	916.773132	393.330994	483.970947	781.296448	76.729645	462.546204	733.326172	53.627445	512.974365	942.547241	40.130398	497.964233	889.548279	33.128479	422.912903	869.853577	501.859161	601.167236	807.935059	94.637169	640.747986	928.919128	38.829121	716.015747	889.688049	499.588074	563.778870	817.601807	80.120392	546.285950	932.457764	38.789211	459.085938	0.000000	0.000000	0.000000	0.000000	0.000000	0.000000	0.000000	0.000000	0.000000	0.000000	0.000000	0.000000	0.000000	0.000000	0.000000	0.000000	0.000000	0.000000	0.000000	0.000000	0.000000	0.000000	0.000000	0.000000	0.000000	0.000000	0.000000	0.000000	0.000000	0.000000	0.000000	0.000000	0.000000	0.000000	0.000000	0.000000	0.000000	0.000000	0.000000	0.000000	0.000000	0.000000	0.000000	0.000000	0.000000	0.000000	0.000000	0.000000	0.000000	0.000000	0.000000	0.000000	0.000000	0.000000	0.000000	0.000000	0.000000	0.000000	0.000000	0.000000	0.000000	0.000000	0.000000	0.000000	0.000000	0.000000	0.000000	0.000000	0.000000	0.000000	0.000000	0.000000	0.000000	0.000000	0.000000	0.000000	0.000000	0.000000	0.000000	0.000000	0.000000	
